<svg xmlns="http://www.w3.org/2000/svg" viewBox="0 0 500 444.13"><g id="Background_complete"><path fill="#e0e0e0" stroke-width="0" d="M443.92,295.37h-180.75c-3.23,0-5.86-2.63-5.86-5.86V26.23c0-3.23,2.63-5.86,5.86-5.86h180.75c3.23,0,5.86,2.63,5.86,5.86v263.27c0,3.23-2.63,5.86-5.86,5.86ZM263.17,20.62c-3.09,0-5.61,2.52-5.61,5.61v263.27c0,3.09,2.52,5.61,5.61,5.61h180.75c3.09,0,5.61-2.52,5.61-5.61V26.23c0-3.09-2.52-5.61-5.61-5.61h-180.75Z"/><path fill="#e0e0e0" stroke-width="0" d="M235.49,295.37H54.75c-3.23,0-5.86-2.63-5.86-5.86V26.23c0-3.23,2.63-5.86,5.86-5.86h180.75c3.23,0,5.86,2.63,5.86,5.86v263.27c0,3.23-2.63,5.86-5.86,5.86ZM54.75,20.62c-3.09,0-5.61,2.52-5.61,5.61v263.27c0,3.09,2.52,5.61,5.61,5.61h180.75c3.09,0,5.61-2.52,5.61-5.61V26.23c0-3.09-2.52-5.61-5.61-5.61H54.75Z"/><rect width="500" height=".25" y="317.69" fill="#e0e0e0" stroke-width="0"/><rect width="16.06" height=".25" x="51.67" y="331.96" fill="#e0e0e0" stroke-width="0"/><rect width="53.53" height=".25" x="170.35" y="329.25" fill="#e0e0e0" stroke-width="0"/><rect width="36.25" height=".25" x="68.73" y="341.25" fill="#e0e0e0" stroke-width="0"/><rect width="43.19" height=".25" x="378.35" y="329.12" fill="#e0e0e0" stroke-width="0"/><rect width="6.33" height=".25" x="430.45" y="329.12" fill="#e0e0e0" stroke-width="0"/><rect width="53.89" height=".25" x="316.21" y="335.35" fill="#e0e0e0" stroke-width="0"/><path fill="#ebebeb" stroke-width="0" d="M394.99,269.3c-7.77-1.96-15.94-.11-23.74,1.73.7-3.15-.27-6.63-2.49-8.97-2.22-2.34-5.64-3.49-8.82-2.97,6.61-4.48,11.69-11.38,13.37-19.19,1.68-7.81-.23-16.45-5.54-22.42-5.3-5.97-10.8-8.07-18.19-5.19-2.22,1.2-3.97,3.25-4.8,5.63-8.56-1.51-17.85,3.12-21.81,10.86-3.95,7.74-2.26,17.98,3.98,24.03-5.91,2.04-9.84,8.68-8.78,14.84,1.06,6.16,6.98,11.11,13.23,11.06-6.86,2.91-10.75,11.2-9.13,18.48,1.63,7.28,8.26,12.99,15.64,14.08,7.37,1.1,15.1-2.18,19.92-7.87,10.9,6.44,24.98,3.85,36.46-1.49,6.77-3.15,13.82-8.18,14.67-15.61.91-7.96-6.21-15.05-13.98-17.01Z"/><path fill="#ebebeb" stroke-width="0" d="M145.05,257.09c2.19-4.44,1.22-10.23-2.28-13.73-2.25-2.25-5.45-3.43-8.62-3.42h.02c-8.45-.93-15.1,3.62-18.19,7.75-3.1,4.13-3.91,9.86-2.08,14.68-7.68-1.5-16.21,1.04-21.28,7.01-5.07,5.97-6.08,15.27-1.83,21.85,4.25,6.57,13.72,9.4,20.6,5.65-.45,10.3,10.81,19.31,20.76,16.61,9.95-2.7,15.12-16.15,9.53-24.82,7.28-2.84,14.23-8.31,15.83-15.96,1.6-7.65-4.73-16.77-12.46-15.63Z"/><path fill="#ebebeb" stroke-width="0" d="M266.87,29.38c4.11-.76,7.55-4.32,8.15-8.46.39-2.66-.42-5.42-2.02-7.56h.01c-3.63-6.18-10.06-8.39-14.41-8.42-4.36-.02-8.65,2.31-11,5.98-2.85-5.97-8.87-10.46-15.46-10.89s-13.41,3.57-15.73,9.76c-2.32,6.19.54,14.03,6.54,16.81-7.21,4.88-7.65,17.04-.81,22.43,6.84,5.39,18.56,2.12,21.62-6.04,5.59,3.51,12.8,5.46,18.79,2.7,5.99-2.77,8.99-11.65,4.32-16.31Z"/><path fill="#ebebeb" stroke-width="0" d="M369.74,126.8c-3.48.47-10.52,3.09-8.36,10.66.96,3.38,5.98,4.55,8.8,2.46-.82,3.37,1.04,7.19,4.2,8.63,3.15,1.44,7.26.35,9.27-2.48,1.24-1.74,1.76-4.01,3.38-5.41,1.25-1.07,2.95-1.44,4.37-2.25,4.4-2.52,5.1-9.14,2.32-13.39-2.77-4.25-7.98-6.33-13.03-6.81-2.78-.26-5.74-.08-8.1,1.41s-3.88,4.57-2.85,7.17"/><circle cx="134.9" cy="154.24" r="9.81" fill="#ebebeb" stroke-width="0" transform="translate(-48.98 63.82) rotate(-22.64)"/></g><g id="Shadow"><path fill="#f5f5f5" stroke-width="0" d="M464.87,425.78c0,10.13-96.2,18.35-214.87,18.35s-214.87-8.22-214.87-18.35,96.2-18.35,214.87-18.35,214.87,8.22,214.87,18.35Z"/></g><g id="Texts"><path fill="#263238" stroke-width="0" d="M93.12,100.77h3.61c2.68,0,4.51,1.65,4.51,4.13s-1.83,4.13-4.51,4.13h-3.61v-8.27ZM96.67,107.74c1.84,0,3.04-1.12,3.04-2.83s-1.19-2.83-3.04-2.83h-2.01v5.67h2.01Z"/><path fill="#263238" stroke-width="0" d="M102.87,100.77h1.54v8.27h-1.54v-8.27Z"/><path fill="#263238" stroke-width="0" d="M108.17,102.06v2.52h3.99v1.3h-3.99v3.16h-1.54v-8.27h6.03v1.29h-4.5Z"/><path fill="#263238" stroke-width="0" d="M115.69,102.06v2.52h3.99v1.3h-3.99v3.16h-1.54v-8.27h6.03v1.29h-4.5Z"/><path fill="#263238" stroke-width="0" d="M121.68,100.77h1.54v8.27h-1.54v-8.27Z"/><path fill="#263238" stroke-width="0" d="M124.85,104.9c0-2.47,1.89-4.25,4.43-4.25,1.35,0,2.5.48,3.27,1.38l-.99.93c-.6-.65-1.35-.97-2.21-.97-1.71,0-2.95,1.2-2.95,2.91s1.24,2.91,2.95,2.91c.86,0,1.61-.32,2.21-.98l.99.94c-.77.9-1.93,1.38-3.28,1.38-2.53,0-4.42-1.78-4.42-4.25Z"/><path fill="#263238" stroke-width="0" d="M133.89,105.43v-4.67h1.54v4.61c0,1.7.77,2.43,2.1,2.43s2.09-.73,2.09-2.43v-4.61h1.51v4.67c0,2.41-1.36,3.72-3.61,3.72s-3.63-1.31-3.63-3.72Z"/><path fill="#263238" stroke-width="0" d="M143.28,100.77h1.54v6.97h4.32v1.3h-5.86v-8.27Z"/><path fill="#263238" stroke-width="0" d="M151.26,102.07h-2.74v-1.3h7.02v1.3h-2.74v6.97h-1.54v-6.97Z"/><path fill="#263238" stroke-width="0" d="M160.13,106.12v2.92h-1.54v-2.89l-3.25-5.37h1.64l2.42,4.03,2.44-4.03h1.51l-3.24,5.35Z"/><path fill="#263238" stroke-width="0" d="M97.45,122.33l.53-1.19c.66.53,1.71.91,2.73.91,1.29,0,1.83-.46,1.83-1.07,0-1.78-4.91-.61-4.91-3.69,0-1.33,1.06-2.47,3.33-2.47.99,0,2.03.26,2.75.73l-.48,1.19c-.74-.44-1.56-.65-2.28-.65-1.28,0-1.79.5-1.79,1.12,0,1.76,4.9.61,4.9,3.65,0,1.32-1.07,2.46-3.34,2.46-1.29,0-2.57-.4-3.26-.99Z"/><path fill="#263238" stroke-width="0" d="M105.57,114.93h1.54v6.97h4.32v1.3h-5.86v-8.27Z"/><path fill="#263238" stroke-width="0" d="M118.84,121.91v1.29h-6.2v-8.27h6.03v1.29h-4.5v2.15h3.99v1.26h-3.99v2.28h4.66Z"/><path fill="#263238" stroke-width="0" d="M126.75,121.91v1.29h-6.2v-8.27h6.03v1.29h-4.5v2.15h3.99v1.26h-3.99v2.28h4.66Z"/><path fill="#263238" stroke-width="0" d="M135.38,117.87c0,1.82-1.35,2.94-3.52,2.94h-1.87v2.39h-1.54v-8.27h3.4c2.17,0,3.52,1.11,3.52,2.94ZM133.83,117.87c0-1.04-.7-1.64-2.04-1.64h-1.79v3.28h1.79c1.35,0,2.04-.6,2.04-1.64Z"/><path fill="#263238" stroke-width="0" d="M136.91,114.93h1.54v8.27h-1.54v-8.27Z"/><path fill="#263238" stroke-width="0" d="M148.02,114.93v8.27h-1.26l-4.56-5.6v5.6h-1.52v-8.27h1.26l4.56,5.6v-5.6h1.52Z"/><path fill="#263238" stroke-width="0" d="M155.88,118.97h1.45v3.3c-.86.7-2.07,1.05-3.24,1.05-2.56,0-4.45-1.78-4.45-4.25s1.89-4.25,4.48-4.25c1.38,0,2.54.46,3.32,1.35l-.97.94c-.65-.65-1.39-.94-2.28-.94-1.76,0-3,1.19-3,2.91s1.24,2.91,2.99,2.91c.59,0,1.17-.12,1.7-.43v-2.57Z"/><path fill="#263238" stroke-width="0" d="M370.87,251.52v-5.48s-2.73,4.54-2.73,4.54h-.68l-2.72-4.46v5.41h-1.46v-8.27h1.26l3.28,5.48,3.22-5.48h1.26v8.27s-1.44,0-1.44,0Z"/><path fill="#263238" stroke-width="0" d="M374.48,247.92v-4.66h1.54v4.61c0,1.7.77,2.43,2.1,2.43s2.09-.73,2.09-2.43v-4.61h1.51v4.66c0,2.41-1.36,3.72-3.61,3.72s-3.63-1.31-3.63-3.72Z"/><path fill="#263238" stroke-width="0" d="M383.17,250.65l.53-1.19c.66.53,1.71.91,2.73.91,1.29,0,1.83-.46,1.83-1.08,0-1.78-4.91-.61-4.91-3.68,0-1.34,1.06-2.47,3.33-2.47.99,0,2.03.26,2.75.73l-.48,1.19c-.74-.44-1.56-.65-2.28-.65-1.28,0-1.79.5-1.79,1.12,0,1.76,4.9.61,4.9,3.65,0,1.32-1.08,2.46-3.34,2.46-1.29,0-2.57-.4-3.26-.99Z"/><path fill="#263238" stroke-width="0" d="M390.7,247.39c0-2.47,1.89-4.25,4.43-4.25,1.35,0,2.5.48,3.27,1.38l-.99.93c-.6-.65-1.35-.97-2.21-.97-1.71,0-2.95,1.21-2.95,2.91s1.24,2.91,2.95,2.91c.86,0,1.61-.32,2.21-.98l.99.95c-.77.9-1.92,1.38-3.28,1.38-2.53,0-4.42-1.78-4.42-4.25Z"/><path fill="#263238" stroke-width="0" d="M399.87,243.26h1.54v6.97h4.32v1.3h-5.86v-8.27Z"/><path fill="#263238" stroke-width="0" d="M413.14,250.24v1.29h-6.2v-8.27h6.04v1.29h-4.5v2.15h3.99v1.26h-3.99v2.28h4.67Z"/><path fill="#263238" stroke-width="0" d="M423.47,249.61h-4.13l-.82,1.91h-1.58l3.72-8.27h1.51l3.73,8.27h-1.61l-.83-1.91ZM422.96,248.41l-1.56-3.61-1.55,3.61h3.11Z"/><path fill="#263238" stroke-width="0" d="M426.24,247.39c0-2.47,1.89-4.25,4.43-4.25,1.35,0,2.5.48,3.27,1.38l-.99.93c-.6-.65-1.35-.97-2.21-.97-1.71,0-2.95,1.21-2.95,2.91s1.24,2.91,2.95,2.91c.86,0,1.61-.32,2.21-.98l.99.95c-.77.9-1.92,1.38-3.28,1.38-2.53,0-4.42-1.78-4.42-4.25Z"/><path fill="#263238" stroke-width="0" d="M442.76,243.26v8.27h-1.54v-3.54h-4.28v3.54h-1.54v-8.27h1.54v3.41h4.28v-3.41h1.54Z"/><path fill="#263238" stroke-width="0" d="M451.17,250.24v1.29h-6.2v-8.27h6.04v1.29h-4.5v2.15h3.99v1.26h-3.99v2.28h4.66Z"/><path fill="#263238" stroke-width="0" d="M452.19,250.65l.53-1.19c.66.53,1.71.91,2.73.91,1.29,0,1.83-.46,1.83-1.08,0-1.78-4.91-.61-4.91-3.68,0-1.34,1.06-2.47,3.33-2.47.99,0,2.03.26,2.75.73l-.48,1.19c-.74-.44-1.56-.65-2.28-.65-1.28,0-1.79.5-1.79,1.12,0,1.76,4.9.61,4.9,3.65,0,1.32-1.08,2.46-3.34,2.46-1.29,0-2.57-.4-3.26-.99Z"/><path fill="#263238" stroke-width="0" d="M331.39,106.2l-1.69-2.42c-.11.01-.21.01-.32.01h-1.87v2.41h-1.54v-8.27h3.4c2.17,0,3.52,1.11,3.52,2.94,0,1.25-.64,2.17-1.76,2.61l1.9,2.72h-1.65ZM329.31,99.23h-1.79v3.3h1.79c1.35,0,2.04-.61,2.04-1.65s-.7-1.64-2.04-1.64Z"/><path fill="#263238" stroke-width="0" d="M340.81,104.91v1.29h-6.2v-8.27h6.04v1.29h-4.5v2.15h3.99v1.26h-3.99v2.28h4.66Z"/><path fill="#263238" stroke-width="0" d="M341.82,105.33l.53-1.19c.66.53,1.71.91,2.73.91,1.29,0,1.83-.46,1.83-1.07,0-1.78-4.91-.61-4.91-3.69,0-1.33,1.06-2.47,3.33-2.47.99,0,2.03.26,2.75.73l-.48,1.19c-.74-.44-1.56-.65-2.28-.65-1.28,0-1.79.5-1.79,1.12,0,1.76,4.9.61,4.9,3.65,0,1.32-1.08,2.46-3.34,2.46-1.29,0-2.57-.4-3.26-.99Z"/><path fill="#263238" stroke-width="0" d="M351.5,99.23h-2.74v-1.3h7.02v1.3h-2.74v6.97h-1.54v-6.97Z"/><path fill="#263238" stroke-width="0" d="M356.93,97.93h1.54v6.97h4.32v1.3h-5.86v-8.27Z"/><path fill="#263238" stroke-width="0" d="M370.2,104.91v1.29h-6.2v-8.27h6.04v1.29h-4.5v2.15h3.99v1.26h-3.99v2.28h4.66Z"/><path fill="#263238" stroke-width="0" d="M371.21,105.33l.53-1.19c.66.53,1.71.91,2.73.91,1.29,0,1.83-.46,1.83-1.07,0-1.78-4.91-.61-4.91-3.69,0-1.33,1.06-2.47,3.33-2.47.99,0,2.03.26,2.75.73l-.48,1.19c-.74-.44-1.56-.65-2.28-.65-1.28,0-1.79.5-1.79,1.12,0,1.76,4.9.61,4.9,3.65,0,1.32-1.08,2.46-3.34,2.46-1.29,0-2.57-.4-3.26-.99Z"/><path fill="#263238" stroke-width="0" d="M378.63,105.33l.53-1.19c.66.53,1.71.91,2.73.91,1.29,0,1.83-.46,1.83-1.07,0-1.78-4.91-.61-4.91-3.69,0-1.33,1.06-2.47,3.33-2.47.99,0,2.03.26,2.75.73l-.48,1.19c-.74-.44-1.56-.65-2.28-.65-1.28,0-1.79.5-1.79,1.12,0,1.76,4.9.61,4.9,3.65,0,1.32-1.08,2.46-3.34,2.46-1.29,0-2.57-.4-3.26-.99Z"/><path fill="#263238" stroke-width="0" d="M394.1,97.93v8.27h-1.26l-4.56-5.6v5.6h-1.52v-8.27h1.26l4.56,5.6v-5.6h1.52Z"/><path fill="#263238" stroke-width="0" d="M402.52,104.91v1.29h-6.2v-8.27h6.04v1.29h-4.5v2.15h3.99v1.26h-3.99v2.28h4.66Z"/><path fill="#263238" stroke-width="0" d="M403.53,105.33l.53-1.19c.66.53,1.71.91,2.73.91,1.29,0,1.83-.46,1.83-1.07,0-1.78-4.91-.61-4.91-3.69,0-1.33,1.06-2.47,3.33-2.47.99,0,2.03.26,2.75.73l-.48,1.19c-.74-.44-1.56-.65-2.28-.65-1.28,0-1.79.5-1.79,1.12,0,1.76,4.9.61,4.9,3.65,0,1.32-1.08,2.46-3.34,2.46-1.29,0-2.57-.4-3.26-.99Z"/><path fill="#263238" stroke-width="0" d="M410.95,105.33l.53-1.19c.66.53,1.71.91,2.73.91,1.29,0,1.83-.46,1.83-1.07,0-1.78-4.91-.61-4.91-3.69,0-1.33,1.06-2.47,3.33-2.47.99,0,2.03.26,2.75.73l-.48,1.19c-.74-.44-1.56-.65-2.28-.65-1.28,0-1.79.5-1.79,1.12,0,1.76,4.9.61,4.9,3.65,0,1.32-1.08,2.46-3.34,2.46-1.29,0-2.57-.4-3.26-.99Z"/><path fill="#263238" stroke-width="0" d="M415.73,397.85v8.27h-1.26l-4.56-5.6v5.6h-1.52v-8.27h1.26l4.56,5.6v-5.6h1.52Z"/><path fill="#263238" stroke-width="0" d="M417.36,401.98c0-2.44,1.89-4.25,4.45-4.25s4.45,1.8,4.45,4.25-1.89,4.25-4.45,4.25-4.45-1.81-4.45-4.25ZM424.72,401.98c0-1.69-1.24-2.91-2.91-2.91s-2.91,1.22-2.91,2.91,1.24,2.91,2.91,2.91,2.91-1.22,2.91-2.91Z"/><path fill="#263238" stroke-width="0" d="M363.3,416.15c0-2.47,1.89-4.25,4.43-4.25,1.35,0,2.5.48,3.27,1.38l-.99.93c-.6-.65-1.35-.97-2.21-.97-1.71,0-2.95,1.21-2.95,2.91s1.24,2.91,2.95,2.91c.86,0,1.61-.32,2.21-.98l.99.95c-.77.9-1.92,1.38-3.28,1.38-2.53,0-4.42-1.78-4.42-4.25Z"/><path fill="#263238" stroke-width="0" d="M371.71,416.15c0-2.44,1.89-4.25,4.45-4.25s4.45,1.8,4.45,4.25-1.89,4.25-4.45,4.25-4.45-1.81-4.45-4.25ZM379.06,416.15c0-1.69-1.24-2.91-2.91-2.91s-2.91,1.22-2.91,2.91,1.24,2.91,2.91,2.91,2.91-1.22,2.91-2.91Z"/><path fill="#263238" stroke-width="0" d="M389.58,412.02v8.27h-1.26l-4.56-5.6v5.6h-1.52v-8.27h1.26l4.56,5.6v-5.6h1.52Z"/><path fill="#263238" stroke-width="0" d="M391.21,416.15c0-2.47,1.89-4.25,4.43-4.25,1.35,0,2.5.48,3.27,1.38l-.99.93c-.6-.65-1.35-.97-2.21-.97-1.71,0-2.95,1.21-2.95,2.91s1.24,2.91,2.95,2.91c.86,0,1.61-.32,2.21-.98l.99.95c-.77.9-1.92,1.38-3.28,1.38-2.53,0-4.42-1.78-4.42-4.25Z"/><path fill="#263238" stroke-width="0" d="M406.58,419v1.29h-6.2v-8.27h6.04v1.29h-4.5v2.15h3.99v1.26h-3.99v2.28h4.66Z"/><path fill="#263238" stroke-width="0" d="M415.63,412.02v8.27h-1.26l-4.56-5.6v5.6h-1.52v-8.27h1.26l4.56,5.6v-5.6h1.52Z"/><path fill="#263238" stroke-width="0" d="M419.52,413.31h-2.74v-1.3h7.02v1.3h-2.74v6.97h-1.54v-6.97Z"/><path fill="#263238" stroke-width="0" d="M430.36,420.28l-1.69-2.42c-.11.01-.21.01-.32.01h-1.87v2.41h-1.54v-8.27h3.4c2.17,0,3.52,1.11,3.52,2.94,0,1.25-.64,2.17-1.76,2.61l1.9,2.72h-1.65ZM428.28,413.31h-1.79v3.29h1.79c1.35,0,2.04-.61,2.04-1.65s-.7-1.64-2.04-1.64Z"/><path fill="#263238" stroke-width="0" d="M438.94,418.37h-4.13l-.82,1.91h-1.58l3.72-8.27h1.51l3.73,8.27h-1.61l-.83-1.91ZM438.44,417.16l-1.56-3.61-1.55,3.61h3.11Z"/><path fill="#263238" stroke-width="0" d="M443.69,413.31h-2.74v-1.3h7.02v1.3h-2.74v6.97h-1.54v-6.97Z"/><path fill="#263238" stroke-width="0" d="M449.12,412.02h1.54v8.27h-1.54v-8.27Z"/><path fill="#263238" stroke-width="0" d="M452.29,416.15c0-2.44,1.89-4.25,4.45-4.25s4.45,1.8,4.45,4.25-1.89,4.25-4.45,4.25-4.45-1.81-4.45-4.25ZM459.65,416.15c0-1.69-1.24-2.91-2.91-2.91s-2.91,1.22-2.91,2.91,1.24,2.91,2.91,2.91,2.91-1.22,2.91-2.91Z"/><path fill="#263238" stroke-width="0" d="M470.17,412.02v8.27h-1.26l-4.56-5.6v5.6h-1.52v-8.27h1.26l4.56,5.6v-5.6h1.52Z"/><path fill="#263238" stroke-width="0" d="M62.73,408.79v2.52h3.99v1.3h-3.99v3.17h-1.54v-8.27h6.03v1.29h-4.5Z"/><path fill="#263238" stroke-width="0" d="M73.73,413.85h-4.13l-.82,1.91h-1.58l3.72-8.27h1.51l3.73,8.27h-1.61l-.83-1.91ZM73.22,412.65l-1.56-3.61-1.55,3.61h3.11Z"/><path fill="#263238" stroke-width="0" d="M78.47,408.8h-2.74v-1.3h7.02v1.3h-2.74v6.97h-1.54v-6.97Z"/><path fill="#263238" stroke-width="0" d="M83.9,407.5h1.54v8.27h-1.54v-8.27Z"/><path fill="#263238" stroke-width="0" d="M93.31,411.54h1.45v3.3c-.86.7-2.07,1.05-3.24,1.05-2.56,0-4.45-1.78-4.45-4.25s1.89-4.25,4.48-4.25c1.38,0,2.54.46,3.32,1.35l-.97.95c-.65-.65-1.39-.95-2.28-.95-1.76,0-3,1.19-3,2.91s1.24,2.91,2.99,2.91c.59,0,1.17-.12,1.7-.42v-2.58Z"/><path fill="#263238" stroke-width="0" d="M96.71,412.16v-4.67h1.54v4.61c0,1.7.77,2.43,2.1,2.43s2.09-.73,2.09-2.43v-4.61h1.51v4.67c0,2.41-1.36,3.72-3.61,3.72s-3.63-1.31-3.63-3.72Z"/><path fill="#263238" stroke-width="0" d="M112.29,414.48v1.29h-6.2v-8.27h6.03v1.29h-4.5v2.15h3.99v1.26h-3.99v2.28h4.67Z"/><path fill="#263238" stroke-width="0" d="M44.39,249.42h1.54v8.27h-1.54v-8.27Z"/><path fill="#263238" stroke-width="0" d="M53.56,257.69l-1.69-2.42c-.11.01-.21.01-.32.01h-1.87v2.41h-1.54v-8.27h3.4c2.17,0,3.52,1.11,3.52,2.94,0,1.25-.64,2.17-1.76,2.61l1.9,2.72h-1.65ZM51.48,250.72h-1.8v3.3h1.8c1.35,0,2.04-.61,2.04-1.65s-.7-1.64-2.04-1.64Z"/><path fill="#263238" stroke-width="0" d="M62.19,257.69l-1.69-2.42c-.11.01-.21.01-.32.01h-1.87v2.41h-1.54v-8.27h3.4c2.17,0,3.52,1.11,3.52,2.94,0,1.25-.64,2.17-1.76,2.61l1.9,2.72h-1.65ZM60.11,250.72h-1.79v3.3h1.79c1.35,0,2.04-.61,2.04-1.65s-.7-1.64-2.04-1.64Z"/><path fill="#263238" stroke-width="0" d="M65.41,249.42h1.54v8.27h-1.54v-8.27Z"/><path fill="#263238" stroke-width="0" d="M70.85,250.72h-2.74v-1.3h7.02v1.3h-2.74v6.97h-1.54v-6.97Z"/><path fill="#263238" stroke-width="0" d="M81.23,255.77h-4.13l-.82,1.91h-1.58l3.72-8.27h1.51l3.73,8.27h-1.61l-.83-1.91ZM80.72,254.57l-1.56-3.61-1.55,3.61h3.11Z"/><path fill="#263238" stroke-width="0" d="M92.06,255.44c0,1.42-1.11,2.24-3.24,2.24h-4.11v-8.27h3.87c1.98,0,3.05.84,3.05,2.15,0,.85-.43,1.48-1.06,1.82.89.28,1.49.98,1.49,2.05ZM86.25,250.62v2.28h2.17c1.06,0,1.67-.38,1.67-1.13s-.6-1.15-1.67-1.15h-2.17ZM90.51,255.29c0-.83-.63-1.19-1.78-1.19h-2.48v2.39h2.48c1.16,0,1.78-.37,1.78-1.19Z"/><path fill="#263238" stroke-width="0" d="M93.69,249.42h1.54v8.27h-1.54v-8.27Z"/><path fill="#263238" stroke-width="0" d="M97.46,249.42h1.54v6.97h4.32v1.3h-5.86v-8.27Z"/><path fill="#263238" stroke-width="0" d="M104.53,249.42h1.54v8.27h-1.54v-8.27Z"/><path fill="#263238" stroke-width="0" d="M109.97,250.72h-2.74v-1.3h7.02v1.3h-2.74v6.97h-1.54v-6.97Z"/><path fill="#263238" stroke-width="0" d="M118.85,254.77v2.92h-1.54v-2.89l-3.25-5.37h1.64l2.42,4.03,2.44-4.03h1.51l-3.24,5.35Z"/></g><g id="Character"><path fill="#407bff" stroke-width="0" d="M330.25,181.54c5.82,7.93,2.41,20.21-4.76,26.81-7.17,6.59-16.9,8.94-26.21,11.07,1.42,7.75-2.1,16.23-8.47,20.39-6.37,4.15-15.16,3.7-21.11-1.09-8.7,13.44-24.29,21.58-39.72,20.74-15.42-.84-30.14-10.63-37.48-24.94-6.61,3.77-14.89,4.08-21.74.81s-12.08-10.04-13.73-17.76c0,0-7.94,1.99-14.58-3.85-24.7-21.74-5.17-49.44,20.27-41.2-2.06-9.19,3.52-19.54,12.06-22.41-9.14-9.55-10.7-26.07-3.54-37.34,7.17-11.26,22.27-16.03,34.14-10.76-3.21-11.07.85-23.78,9.1-31.45,8.24-7.66,20.07-10.41,30.88-8.28,10.81,2.13,20.56,8.79,27.76,17.54,5.57,6.77,9.88,15.93,7.44,24.51,5.2-5.58,14.19-6.68,20.47-2.5,6.28,4.18,11.62,14,6.37,27.3,0,0,11.64,1.02,14.27,13.2,0,0,8.48-2.89,10.23,7.24,0,0,20.39-4.22,21.87,14.25,1.5,18.74-23.53,17.72-23.53,17.72Z"/><g opacity=".8"><path fill="#fff" stroke-width="0" d="M330.25,181.54c5.82,7.93,2.41,20.21-4.76,26.81-7.17,6.59-16.9,8.94-26.21,11.07,1.42,7.75-2.1,16.23-8.47,20.39-6.37,4.15-15.16,3.7-21.11-1.09-8.7,13.44-24.29,21.58-39.72,20.74-15.42-.84-30.14-10.63-37.48-24.94-6.61,3.77-14.89,4.08-21.74.81s-12.08-10.04-13.73-17.76c.71,1.62-7.94,1.99-14.58-3.85-24.7-21.74-5.17-49.44,20.27-41.2-2.06-9.19,3.52-19.54,12.06-22.41-9.14-9.55-10.7-26.07-3.54-37.34,7.17-11.26,22.27-16.03,34.14-10.76-3.21-11.07.85-23.78,9.1-31.45,8.24-7.66,20.07-10.41,30.88-8.28,10.81,2.13,20.56,8.79,27.76,17.54,5.57,6.77,9.88,15.93,7.44,24.51,5.2-5.58,14.19-6.68,20.47-2.5,6.28,4.18,11.62,14,6.37,27.3,0,0,11.64,1.02,14.27,13.2,0,0,8.48-2.89,10.23,7.24,0,0,20.39-4.22,21.87,14.25,1.5,18.74-23.53,17.72-23.53,17.72Z"/></g><g opacity=".3"><path stroke-width="0" d="M174.95,183.27c-5.01-1.04-10.49,2.46-11.32,7.6s3.63,10.49,8.94,10.77l-.38-1.4c-3.76,2.05-4.16,7.13-1.67,10.32,3.24,4.16,8.85,4.36,13.59,3.31.94-.21.54-1.66-.4-1.45-3.92.87-8.49.9-11.49-2.18-2.4-2.46-2.58-6.91.73-8.7.69-.37.33-1.36-.38-1.4-4.44-.24-8.3-4.73-7.43-9.2.8-4.15,5.31-7.08,9.42-6.23.94.2,1.34-1.25.4-1.45h0Z"/></g><g opacity=".3"><path stroke-width="0" d="M294.86,169.71c2.62-3.09,7.34.29,9.22,2.56,2.38,2.9,3.43,6.82,2.7,10.51-.13.67.5,1.13,1.1.85,2.72-1.26,6.07-.99,8.5.81s3.58,4.95,3.2,7.93c-.12.95,1.38.95,1.5,0,.45-3.51-1.06-7.14-3.94-9.23s-6.8-2.3-10.01-.81l1.1.85c.88-4.47-.46-9.16-3.55-12.5-2.48-2.69-7.86-5.58-10.87-2.03-.62.73.44,1.8,1.06,1.06h0Z"/></g><path fill="#407bff" stroke-width="0" d="M172.22,266.27c-.84,1.42-21.76,30.96-19.82,37.18,4.1,13.16,20.05,39.75,31.22,50.11,11.16,10.36,12.89,13.35,17.31,11.47,4.42-1.88,16.85-10.72,18.2-16.56s-34.42-65.54-31.96-70.99c2.46-5.46,33.38-14.03,33.38-14.03l2.02-44.27s-8.37,1.58-20.46,7.95c-10.05,5.3-22.61,26.91-29.87,39.14Z"/><g opacity=".3"><path stroke-width="0" d="M197.46,242.91c2.08,4.08,4.73,7.85,7.85,11.2.66.71,1.72-.35,1.06-1.06-3.04-3.26-5.59-6.93-7.62-10.89-.44-.86-1.73-.1-1.3.76h0Z"/></g><path fill="#407bff" stroke-width="0" d="M343.63,334.92c-11.54-36.41-16.33-45.67-29.67-84.16-4.13-11.91-9.11-21.63-15.46-27.21-15.86-13.96-48.34-10.82-48.34-10.82,0,0-6.29.5-26.35,6.02-1.25.34-9.03,3.5-9.03,3.5l8.21,111.78c3.74,1.05,32.6,10.57,81.39,7.92,48.79-2.66,39.25-7.02,39.25-7.02Z"/><polygon stroke-width="0" points="172.05 339.72 187.72 324.95 185.42 322.41 170.08 336.87 172.05 339.72" opacity=".3"/><path fill="#407bff" stroke-width="0" d="M220.88,366.94s11.92,30.06,12.23,30.91l4.47,17.38c.61,1.57-.29,3.31-2.01,3.88-.31.1-.63.16-.95.18-9.35.62-13.77.91-25.41,1.69l-35.59,2.36c-9.7.64-12.31-8.19-8.37-9.29,16.13-4.4,28.81-11.69,34.91-16.86.99-.84,1.28-2.16.73-3.28l-8.1-16.38,28.1-10.6Z"/><path fill="#fff" stroke-width="0" d="M220.88,366.94s11.92,30.06,12.23,30.91l4.47,17.38c.61,1.57-.29,3.31-2.01,3.88-.31.1-.63.16-.95.18-9.35.62-13.77.91-25.41,1.69l-35.59,2.36c-9.7.64-12.31-8.19-8.37-9.29,16.13-4.4,28.81-11.69,34.91-16.86.99-.84,1.28-2.16.73-3.28l-8.1-16.38,28.1-10.6Z" opacity=".3"/><g opacity=".3"><path stroke-width="0" d="M199.09,381.17c2.8,3.11,4.93,6.79,6.21,10.77.3.91,1.74.52,1.45-.4-1.37-4.24-3.62-8.13-6.6-11.43-.65-.72-1.71.35-1.06,1.06h0Z"/></g><g opacity=".3"><path stroke-width="0" d="M208.05,381.81c1.54,3.06,3.08,6.13,4.61,9.19.43.86,1.73.1,1.3-.76-1.54-3.06-3.08-6.13-4.61-9.19-.43-.86-1.73-.1-1.3.76h0Z"/></g><g opacity=".3"><path stroke-width="0" d="M216.35,380.03c.84,3.29,2.18,6.44,3.96,9.34.5.82,1.8.07,1.3-.76-1.72-2.79-3-5.81-3.81-8.98-.24-.93-1.69-.54-1.45.4h0Z"/></g><path fill="#263238" stroke-width="0" d="M180.82,362.79s4.64,19.07,8.62,20.14c3.98,1.07,20.55-3.31,20.55-3.31l-8.45-25.62-20.71,8.78Z"/><path stroke-width="0" d="M180.89,362.61s4.4,19.13,8.36,20.25c3.96,1.12,20.59-3.05,20.59-3.05l-8.13-25.72-20.82,8.52Z" opacity=".3"/><path fill="#263238" stroke-width="0" d="M189.23,327.36s-12.22-15.66-19.88-26.83c-5.18-7.56-8.87-27.51,2.43-37.69,11.3-10.17,32.86-4.02,34.43-2.79,1.25.98,17.6,33.78,17.6,33.78l-34.58,33.53Z"/><path fill="#263238" stroke-width="0" d="M306.07,341.96c-1.89-1.56-56.66-86.13-76.96-91.16-20.3-5.03-43.3,9.26-46.23,19.64-2.93,10.38,9.33,103.74,19,108.76,9.68,5.02,33.25-5.56,33.55-3.22.3,2.35,9.11,41.12,48.32,49.66,39.21,8.54,65.74-13.1,69.44-32.26,3.7-19.16-9.39-56.72-9.39-56.72-12.08,2.66-24.69,4.35-37.73,5.29Z"/><path stroke-width="0" d="M184.45,368.55s11.09-2.5,23.6-9.1c12.5-6.6,48.4-33.94,54.19-41.26,5.79-7.32,22.59-37.21,26.23-45.44,5.79-13.11,5.79-24.7,5.79-24.7l-109.81,120.5Z" opacity=".3"/><g opacity=".3"><path stroke-width="0" d="M303.01,339.05c7.75,11.29,15.71,22.44,23.46,33.74.54.79,1.84.04,1.3-.76-7.75-11.29-15.71-22.44-23.46-33.74-.54-.79-1.84-.04-1.3.76h0Z"/></g><g opacity=".3"><path stroke-width="0" d="M231.24,375.84c5.05-1.55,10.1-3.11,15.16-4.66,2.53-.78,5.05-1.55,7.58-2.33,1.59-.49,3.36-1,4.44-2.35,1.3-1.65.86-3.76.24-5.59-.79-2.34-1.62-4.67-2.44-7.01-1.56-4.48-3.12-8.97-4.68-13.45-1.82-5.23-3.64-10.46-5.46-15.7-.32-.91-1.76-.52-1.45.4,2.93,8.42,5.86,16.85,8.79,25.27.73,2.1,1.46,4.21,2.19,6.31s1.93,4.45,2.13,6.7c.24,2.61-2.13,3.34-4.18,3.97-2.29.71-4.58,1.41-6.87,2.11-5.29,1.63-10.58,3.25-15.87,4.88-.92.28-.53,1.73.4,1.45h0Z"/></g><g opacity=".3"><path stroke-width="0" d="M196.96,256.47c-7.42,2.82-13,9.4-14.4,17.24-.87,4.89-.33,9.86.28,14.74.65,5.24,1.31,10.49,1.96,15.73.74,5.91,1.47,11.82,2.21,17.73.12.95,1.62.96,1.5,0-1.23-9.85-2.46-19.7-3.69-29.55-1.1-8.85-2.85-18.48,2.43-26.38,2.44-3.65,6-6.5,10.1-8.06.89-.34.51-1.79-.4-1.45h0Z"/></g><path fill="#407bff" stroke-width="0" d="M249.74,370.3s11.92,30.06,12.23,30.91l4.47,17.38c.61,1.57-.29,3.31-2.01,3.88-.31.1-.63.16-.95.18-9.35.62-13.77.91-25.41,1.69l-35.59,2.36c-9.7.64-12.31-8.19-8.37-9.29,16.13-4.4,28.81-11.69,34.91-16.86.99-.84,1.28-2.16.73-3.28l-9.06-18.33,29.06-8.65Z"/><path fill="#fff" stroke-width="0" d="M249.74,370.3s11.92,30.06,12.23,30.91l4.47,17.38c.61,1.57-.29,3.31-2.01,3.88-.31.1-.63.16-.95.18-9.35.62-13.77.91-25.41,1.69l-35.59,2.36c-9.7.64-12.31-8.19-8.37-9.29,16.13-4.4,28.81-11.69,34.91-16.86.99-.84,1.28-2.16.73-3.28l-9.06-18.33,29.06-8.65Z" opacity=".5"/><g opacity=".3"><path stroke-width="0" d="M227.57,380c3.51,5.2,6.52,10.73,8.98,16.51.38.89,1.67.12,1.3-.76-2.46-5.78-5.46-11.3-8.98-16.51-.54-.8-1.84-.05-1.3.76h0Z"/></g><g opacity=".3"><path stroke-width="0" d="M235.27,378.56c2.84,4.75,5.69,9.49,8.53,14.24.5.83,1.79.07,1.3-.76-2.84-4.75-5.69-9.49-8.53-14.24-.5-.83-1.79-.07-1.3.76h0Z"/></g><g opacity=".3"><path stroke-width="0" d="M243.36,376.38c2.3,4.33,4.04,8.92,5.19,13.68.23.94,1.67.54,1.45-.4-1.18-4.89-2.98-9.6-5.34-14.04-.45-.85-1.75-.1-1.3.76h0Z"/></g><g opacity=".3"><path stroke-width="0" d="M306.95,342.79l-.15.14c6.02,10.24,14.75,20.99,22.41,30.07-3.37-12.35-11.47-23.34-22.27-30.21Z"/></g><path fill="#ffb463" stroke-width="0" d="M164.08,350.74c-1.81,2.25-3.71,4.7-3.9,7.58-.14,2.24.81,4.46,2.26,6.18,1.44,1.72,3.34,3,5.31,4.09,1.38.76,2.83,1.45,4.39,1.65,1.56.21,3.25-.13,4.41-1.2-3.42-1.83-5.7-5.27-7.27-8.81-1.58-3.55-2.6-7.33-4.33-10.8"/><path fill="#407bff" stroke-width="0" d="M268.23,218.48s-36.65,62.66-42.02,69.78c-5.36,7.12-60.87,56.16-61.64,59.49-.77,3.32,7.85,23.99,15.38,24.65,7.53.66,60.21-41.4,74.28-57.5,13.88-15.87,34.92-53.39,40.7-65.21,5.78-11.82-5.51-40.72-26.71-31.2Z"/><g opacity=".3"><path stroke-width="0" d="M244.54,259.89c3.79-6.5,7.59-12.99,11.5-19.42,2.58-4.25,5.08-8.76,8.26-12.61.61-.74-.45-1.81-1.06-1.06-3.18,3.85-5.7,8.32-8.29,12.58-3.98,6.54-7.85,13.15-11.7,19.76-.49.84.81,1.59,1.3.76h0Z"/></g><g opacity=".3"><path stroke-width="0" d="M274.51,220.19c11.12-.73,21.07,6.9,23.26,17.81.19.95,1.64.55,1.45-.4-2.31-11.53-12.97-19.68-24.71-18.92-.96.06-.97,1.56,0,1.5h0Z"/></g><path fill="#263238" stroke-width="0" d="M277.91,147.74c2.71-.88,4.91-3.2,5.65-5.95-3.15,1.94-7.39,1.95-10.55.03,6.35-1.91,10.99-8.45,10.67-15.08-.31-6.63-5.55-12.71-12.05-14-4.04-.8-8.52.22-11.43,3.14-2.9,2.92-9.98,9.77-7.91,13.33l13.67,21.08c5.92,2.13,12.88,1.05,17.88-2.77-1.9.64-3.98.72-5.93.22Z"/><path fill="#263238" stroke-width="0" d="M258.09,125.98c-7.24-5.49-13.64-8.46-22.27-8.67-7.57-.18-17.97,2.05-24.25,6.66-8.54,6.26-12.68,17.89-14.76,29.22-2.33,12.68,4.45,26.97,11.53,37.41,2.93,4.32,5.26,5.95,9.76,4.88l2.02,2.21c14.4,2.46,28.94,15.67,49.55-28.05,6.82-14.46.6-34.42-11.58-43.66Z"/><path fill="#ffb463" stroke-width="0" d="M235.04,215.88s-.2-4.76-1.04-8.7c-.61-3.03-1.85-6.13-3.28-9.13l3.73-4.77,19.64-21.66c.1,13.88-4.38,33.72,6.78,40.76l9.8,1.16c-3.38,3.03-9.86,11.18-31.81,15.05-11.89,2.1-14.01-5.28-11.23-10.88.42-.23,7.42-1.83,7.42-1.83Z"/><path stroke-width="0" d="M234.1,208.97c5.74-1.85,13.86-6.46,14.73-13.26.36-2.8.2-5.54-.11-7.34l-16.57,12.37c.42,2.59,2.03,4.46,1.94,8.24Z" opacity=".2"/><path fill="#ffb463" stroke-width="0" d="M260.83,149.02c-1.09,21.21-1.11,30.18-11.57,41.69-15.74,17.32-41.19,12.71-46.37-8.06-4.66-18.69-2.09-50.23,18.3-59.94,20.09-9.56,40.73,5.09,39.64,26.3Z"/><path fill="#263238" stroke-width="0" d="M236.67,157.93c.13,1.98-.87,3.74-2.25,3.94-1.38.2-2.6-1.24-2.73-3.22-.13-1.98.87-3.74,2.25-3.94,1.38-.2,2.6,1.24,2.73,3.22Z"/><path fill="#263238" stroke-width="0" d="M227.86,148.17c.26-.07.54-.04.78.12,3.7,2.46,7.15.82,7.19.8.51-.24,1.1-.03,1.32.5.21.53-.04,1.16-.55,1.41-.18.09-4.51,2.14-9.1-.91-.46-.3-.57-.95-.25-1.45.15-.24.38-.4.62-.47Z"/><path fill="#263238" stroke-width="0" d="M215.29,149.2c.25.04.49.17.64.39.32.45.18,1.09-.3,1.43-4.84,3.41-9.31,1.88-9.5,1.81-.53-.19-.77-.77-.54-1.3.23-.53.85-.8,1.38-.62.17.06,3.65,1.2,7.51-1.51.25-.18.54-.24.81-.19Z"/><path fill="#ff7800" stroke-width="0" d="M220,155.84s-2.99,8.04-6.52,13.12c-.62.89-.16,2.13.86,2.46,2.65.86,5.67-.13,5.67-.13v-15.45Z"/><path fill="#263238" stroke-width="0" d="M234.76,154.78l-4.96-.54s3.75,3.21,4.96.54Z"/><path fill="#263238" stroke-width="0" d="M215.45,158.64c.13,1.98-.87,3.74-2.25,3.94-1.38.2-2.6-1.24-2.73-3.22-.13-1.98.87-3.74,2.25-3.94,1.38-.2,2.6,1.24,2.73,3.22Z"/><path fill="#263238" stroke-width="0" d="M213.55,155.53l-4.96-.54s3.75,3.21,4.96.54Z"/><path fill="#263238" stroke-width="0" d="M253.71,185.48c19.38-15.12,17.61-68.05-19.41-67.87-37.02.18-35.65,50.84-35.65,50.84,10.71-31.91,42.48-36.39,42.48-36.39-5.66,16.9,9.59,26.34,9.59,26.34,6.05,10.71,2.99,27.08,2.99,27.08Z"/><path fill="#ffb463" stroke-width="0" d="M267.91,165.99c-2.32,4.43-6.27,7.31-9.95,8.39-5.54,1.63-8.78-7.25-7.1-12.93,1.52-5.11,6.88-8.67,12.37-7.79,5.41.87,7.34,7.25,4.68,12.32Z"/><g opacity=".3"><path stroke-width="0" d="M259.98,159.86c1.03-.46,2.21-.03,2.94.76.17.19.29.4.41.62.07.12-.04-.12.01.02.02.06.05.13.06.19.04.13.07.25.09.38.01.06.02.19.01.06,0,.09.02.18.02.27.03.7-.07,1.21-.34,1.9s-.79,1.39-1.36,1.93c-.91.86-2.06,1.43-3.24,1.82-.91.3-.52,1.75.4,1.45,2.4-.78,4.61-2.27,5.6-4.68.69-1.68.65-3.7-.65-5.07-1.23-1.29-3.09-1.67-4.71-.95-.37.16-.46.7-.27,1.03.22.38.65.43,1.03.27h0Z"/></g><path fill="#263238" stroke-width="0" d="M218.19,177.51c2.63-3.63,8.62-4.55,12.97-2.4,1,.49,1.96,1.87,2.08,2.99.08.8-.36,1.6-1.01,2.08-.65.48-1.47.68-2.27.7-1.55.05-3.31-.44-4.49.56-.46.39-.74.95-1.13,1.41-1.34,1.59-4.03,1.72-5.59.34-1.55-1.38-1.77-3.98-.55-5.67Z"/><path fill="#ff3f3e" stroke-width="0" d="M233.04,177.37c.09.24.17.49.19.72.08.8-.36,1.6-1.01,2.08-.65.48-1.47.68-2.27.7-1.55.05-3.31-.44-4.49.56-.46.39-.74.95-1.13,1.41-.53.63-1.27,1.02-2.07,1.19-.12-.01-1.01-2.66,1.34-4.98,2.34-2.32,9.3-1.69,9.43-1.68Z"/><path fill="#fff" stroke-width="0" d="M218.23,177.46c.23.1,1.67.62,3.73-.56,2.07-1.18,8.14-1.77,9.06-1.86-4.32-2.05-10.17-1.14-12.79,2.41Z"/><g opacity=".3"><path fill="#ff7800" stroke-width="0" d="M217.84,143.38c-1.19.8-2.41,1.74-3.07,2.96-.35.64-.16,1.45.41,1.9,1.3,1.01,3.19,2.08,4.37,2.69,1.47.75,3.29,1.01,4.76.25,1.09-.56,1.84-1.59,2.68-2.48,1.32-1.39,2.93-2.49,4.71-3.21,1.34-.54,2.85-.92,3.75-2.05.47-.59.71-1.33.94-2.05.42-1.3.78-2.95,1.17-4.5.26-1.07-.68-2.09-1.76-1.85-6.42,1.45-12.5,4.68-17.97,8.35Z"/></g><g opacity=".3"><path fill="#ff7800" stroke-width="0" d="M242.49,160.24c-.79-.79-1.93-.73-2.84-.26-.9.47-1.64,1.3-2.44,2-3.48,3.05-8.32,3.65-12.37,1.53v.04c-.29,2.82,1.23,5.66,3.9,6.62.02,0,.03.01.05.02,1.74.61,3.57.57,5.34.37,1.82-.2,3.66-.57,5.3-1.53,1.64-.96,3.07-2.57,3.67-4.68.39-1.38.33-3.16-.62-4.1Z"/></g><path fill="#ff7800" stroke-width="0" d="M210.61,168.06c.49-2.02-.88-4.06-2.87-4.68-1.75-.54-3.9-.98-4.7-.11-1.39,1.49-2.61,5.91.62,7.15,3.22,1.24,4.96.53,6.39-1.19.29-.34.46-.75.57-1.17Z" opacity=".3"/><g opacity=".3"><path stroke-width="0" d="M231.42,163.18c.94.82,2.15,1.18,3.38.99,1.12-.17,2.1-.86,2.73-1.79.23-.34.06-.83-.27-1.03-.37-.22-.8-.07-1.03.27-.03.04-.06.08-.08.12.05-.06,0,0-.02.02-.07.08-.15.17-.23.24-.18.17-.21.19-.37.3-.09.06-.19.12-.29.17-.04.02-.09.04-.13.06.07-.03.01,0-.03,0-.2.07-.4.13-.61.16-.12.02.1,0-.03,0-.05,0-.1,0-.16.01-.1,0-.21,0-.31,0-.05,0-.1,0-.16-.01-.13-.01.09.02-.03,0-.12-.02-.23-.05-.34-.08-.34-.1-.72-.3-.96-.51-.31-.27-.76-.3-1.06,0-.27.27-.31.79,0,1.06h0Z"/></g><g opacity=".3"><path stroke-width="0" d="M208.97,162.39c.6,1.14,1.76,1.9,3.03,2.06s2.56-.37,3.38-1.31c.27-.31.3-.76,0-1.06-.27-.27-.79-.31-1.06,0-.08.09-.16.18-.25.26-.1.09-.12.11-.19.16-.1.07-.2.13-.3.19-.05.03-.09.05-.14.07-.03.01-.16.07-.08.04-.22.08-.46.15-.69.18.08,0,0,0-.04,0-.07,0-.13,0-.2,0-.12,0-.24,0-.36-.02.08.01,0,0-.03,0-.05-.01-.1-.02-.15-.03-.11-.03-.22-.06-.33-.1-.07-.02.04.02-.07-.03-.05-.02-.09-.05-.14-.07-.1-.05-.2-.11-.3-.18-.03-.02-.14-.1-.07-.04-.04-.03-.08-.07-.12-.1-.09-.08-.17-.16-.25-.24-.13-.14-.22-.28-.35-.51-.19-.36-.69-.47-1.03-.27-.36.21-.46.67-.27,1.03h0Z"/></g><g opacity=".3"><path stroke-width="0" d="M252.83,123.65c9.69,6.57,16.5,16.9,18.78,28.38.19.95,1.63.55,1.45-.4-2.36-11.86-9.47-22.49-19.47-29.27-.8-.54-1.55.76-.76,1.3h0Z"/></g><path fill="#fff" stroke-width="0" d="M249.28,140.97c.88,1.51,1.41,3.16,1.56,4.82.04.47.05.96-.18,1.39-.23.43-.74.77-1.3.71-.51-.05-.92-.43-1.09-.84-.17-.41-.15-.85-.1-1.28.16-1.52.47-3.39,1.11-4.8"/><path fill="#fff" stroke-width="0" d="M252.64,136.75c.88,1.51,1.41,3.16,1.56,4.82.04.47.05.96-.18,1.39-.23.43-.74.77-1.3.71-.51-.05-.92-.43-1.09-.84-.17-.41-.15-.85-.1-1.28.16-1.52.47-3.39,1.11-4.8"/><path fill="#263238" stroke-width="0" d="M256.62,122.31c-1.43-2.34-.7-5.37,1.1-7.3,2.08-2.23,5.31-3.02,8.25-3.19,3.14-.18,6.61.18,9.07,2.34,2.22,1.95,3.16,5.44.98,7.8-.65.71.4,1.77,1.06,1.06,1.79-1.94,2.13-4.78,1.07-7.17-1.14-2.57-3.66-4.27-6.31-5.01-5.18-1.45-12.8-.6-16.05,4.2-1.6,2.36-1.99,5.54-.47,8.02.5.82,1.8.07,1.3-.76h0Z"/><path fill="#263238" stroke-width="0" d="M209.98,126.23c-5.99,1.86-11.15,6.25-13.76,11.98-2.86,6.29-2.55,13.68.67,19.77.45.85,1.75.1,1.3-.76-3.01-5.7-3.31-12.75-.52-18.59,2.5-5.23,7.18-9.24,12.71-10.96.92-.29.53-1.73-.4-1.45h0Z"/><path fill="#263238" stroke-width="0" d="M247.41,120.49c-5.97-5.06-13.5-8.76-21.52-7.75-7.05.89-13.53,5.84-14.76,13.09-.16.94,1.28,1.35,1.45.4,1.17-6.86,7.34-11.44,14.05-12.07,7.37-.69,14.24,2.74,19.73,7.39.73.62,1.8-.43,1.06-1.06h0Z"/><path fill="#263238" stroke-width="0" d="M240.32,134.91c-2.29,7.25-1.37,15.41,2.6,21.92,2.08,3.41,5.11,6.22,6.77,9.89,1.78,3.94,1.47,8.58-.63,12.33-.47.84.82,1.6,1.3.76,1.92-3.43,2.51-7.51,1.53-11.34s-3.7-6.87-6.04-10.02c-4.96-6.66-6.59-15.18-4.07-23.14.29-.92-1.16-1.32-1.45-.4h0Z"/><path fill="#263238" stroke-width="0" d="M256.63,185.68c.89,5.14,3.61,9.91,7.58,13.3.73.62,1.8-.43,1.06-1.06-3.8-3.24-6.34-7.72-7.19-12.64-.16-.95-1.61-.55-1.45.4h0Z"/><path fill="#263238" stroke-width="0" d="M256.11,185.89c4.22,3.61,9.38,5.87,14.89,6.56.96.12.95-1.38,0-1.5-5.08-.63-9.94-2.8-13.83-6.12-.73-.62-1.8.43-1.06,1.06h0Z"/><path fill="#407bff" stroke-width="0" d="M247.63,104.63c-1.37-3.41-5-5.34-8.52-6.43-8.54-2.66-18.08-2-26.17,1.81-8.1,3.81-14.68,10.73-18.08,19.01l-19.29,27.38c3.85,2.55,8.95,3.13,13.27,1.49s7.77-5.43,8.98-9.89c4.31,3.01,10.73,2.5,14.51-1.15,3.78-3.65,4.5-10.05,1.64-14.46,2.58,1.54,5.95,1.63,8.61.24,2.66-1.39,4.51-4.21,4.73-7.2,4.53,1.91,9.77,2.89,14.33,1.04,4.55-1.85,7.84-7.28,6.01-11.84Z"/><g opacity=".8"><path fill="#fff" stroke-width="0" d="M247.63,104.63c-1.37-3.41-5-5.34-8.52-6.43-8.54-2.66-18.08-2-26.17,1.81-8.1,3.81-14.68,10.73-18.08,19.01l-19.29,27.38c3.85,2.55,8.95,3.13,13.27,1.49s7.77-5.43,8.98-9.89c4.31,3.01,10.73,2.5,14.51-1.15,3.78-3.65,4.5-10.05,1.64-14.46,2.58,1.54,5.95,1.63,8.61.24,2.66-1.39,4.51-4.21,4.73-7.2,4.53,1.91,9.77,2.89,14.33,1.04,4.55-1.85,7.84-7.28,6.01-11.84Z"/></g><path fill="#407bff" stroke-width="0" d="M285.71,154.79c-1.95-1.77-4.85-2.44-7.37-1.69-2.53.75-4.6,2.88-5.26,5.43-1.79-2.19-5.04-3.04-7.67-2-2.63,1.03-4.43,3.87-4.25,6.69.18,2.82,2.33,5.4,5.07,6.09-2.7,1.18-3.69,4.83-2.58,7.56s3.83,4.53,6.66,5.36c6.53,1.9,14.15-1.15,17.58-7.01l-2.17-20.43Z"/><g opacity=".8"><path fill="#fff" stroke-width="0" d="M285.71,154.79c-1.95-1.77-4.85-2.44-7.37-1.69-2.53.75-4.6,2.88-5.26,5.43-1.79-2.19-5.04-3.04-7.67-2-2.63,1.03-4.43,3.87-4.25,6.69.18,2.82,2.33,5.4,5.07,6.09-2.7,1.18-3.69,4.83-2.58,7.56s3.83,4.53,6.66,5.36c6.53,1.9,14.15-1.15,17.58-7.01l-2.17-20.43Z"/></g><path fill="#407bff" stroke-width="0" d="M225.04,209.34l-33.15,18.83c.55,3.33,2.78,6.33,5.8,7.83,3.02,1.49,6.77,1.43,9.74-.15,2.31,3.78,8.14,4.76,11.56,1.94,3.42-2.82,3.56-8.73.29-11.71,4.33,1.29,9.43-1.34,10.9-5.6,1.47-4.27-.94-9.48-5.14-11.13Z"/><g opacity=".8"><path fill="#fff" stroke-width="0" d="M225.04,209.34l-33.15,18.83c.55,3.33,2.78,6.33,5.8,7.83,3.02,1.49,6.77,1.43,9.74-.15,2.31,3.78,8.14,4.76,11.56,1.94,3.42-2.82,3.56-8.73.29-11.71,4.33,1.29,9.43-1.34,10.9-5.6,1.47-4.27-.94-9.48-5.14-11.13Z"/></g><path fill="#407bff" stroke-width="0" d="M285.79,68.28c-4.83,1.92-7.49,8.04-5.61,12.88,1.88,4.84,7.98,7.55,12.83,5.71,4.86-1.84,7.62-7.91,5.82-12.78-1.8-4.87-7.85-7.68-12.74-5.92"/><g opacity=".8"><path fill="#fff" stroke-width="0" d="M285.79,68.28c-4.83,1.92-7.49,8.04-5.61,12.88,1.88,4.84,7.98,7.55,12.83,5.71,4.86-1.84,7.62-7.91,5.82-12.78-1.8-4.87-7.85-7.68-12.74-5.92"/></g><g opacity=".3"><path stroke-width="0" d="M203.18,107.39c3.21-4.45,9.68-5.9,14.5-3.32.52.28,1.1-.07,1.13-.65.33-6.04,5.99-11.32,12.09-10.96s11.07,6.25,10.74,12.29c-.03.62.65.86,1.13.65,2.84-1.29,6.27.85,6.69,3.83.13.95,1.58.55,1.45-.4-.57-4.04-5.27-6.37-8.89-4.73l1.13.65c.38-6.87-5.32-13.41-12.24-13.79s-13.22,5.63-13.59,12.46l1.13-.65c-5.59-2.99-12.85-1.27-16.55,3.86-.57.78.74,1.53,1.3.76h0Z"/></g></g><g id="No_Concentration"><circle cx="414.7" cy="346.89" r="42.24" fill="#407bff" stroke-width="0" transform="translate(5.1 699.79) rotate(-80.66)"/><circle cx="414.7" cy="346.89" r="42.24" fill="#fff" stroke-width="0" opacity=".8" transform="translate(5.1 699.79) rotate(-80.66)"/><path fill="#407bff" stroke-width="0" d="M390.76,346.09c-.8,1.58-1.27,3.27-1.43,4.97l-2.63.54.57,5.14,2.68-.04c.53,1.63,1.36,3.17,2.49,4.54l-1.47,2.24,4.04,3.23,1.86-1.92c1.58.8,3.27,1.27,4.97,1.43l.54,2.63,5.14-.57-.04-2.68c1.63-.53,3.17-1.36,4.54-2.49l2.24,1.47,3.23-4.04-1.92-1.86c.8-1.58,1.27-3.27,1.43-4.97l2.63-.55-.57-5.14-2.68.04c-.53-1.63-1.36-3.17-2.49-4.54l1.47-2.24-4.04-3.23-1.86,1.92c-1.58-.8-3.27-1.27-4.97-1.43l-.55-2.63-5.14.57.04,2.68c-1.63.53-3.17,1.36-4.54,2.49l-2.24-1.47-3.23,4.04,1.92,1.86ZM407.48,346.86c2.86,2.29,3.32,6.46,1.04,9.32-2.29,2.86-6.46,3.32-9.32,1.04-2.86-2.29-3.32-6.46-1.03-9.32,2.29-2.86,6.46-3.32,9.32-1.04Z"/><path fill="#263238" stroke-width="0" d="M405.87,322.9c-.46.96-.74,1.93-.86,2.99l.28-.36-1.48.31c-.15.03-.29.21-.28.36l.32,2.9c.02.2.15.38.38.38l1.51-.03-.36-.28c.35,1,.84,1.89,1.5,2.72l-.06-.45-.83,1.26c-.08.13-.06.36.06.45l2.28,1.82c.16.12.38.16.53,0l1.05-1.08-.45.06c.96.46,1.93.74,2.99.86l-.36-.28.31,1.48c.03.15.21.29.36.28l2.9-.32c.2-.02.38-.15.38-.38l-.03-1.51-.28.36c1-.35,1.89-.84,2.72-1.5l-.45.06,1.26.83c.13.08.36.06.45-.06l1.82-2.28c.12-.16.16-.38,0-.53l-1.08-1.05.06.45c.46-.96.74-1.93.86-2.99l-.28.36,1.48-.31c.15-.03.29-.21.28-.36l-.32-2.9c-.02-.2-.15-.38-.38-.38l-1.51.03.36.28c-.35-1-.84-1.89-1.5-2.72l.06.45.83-1.26c.08-.13.06-.36-.06-.45l-2.28-1.82c-.16-.12-.38-.16-.53,0l-1.05,1.08.45-.06c-.96-.46-1.93-.74-2.99-.86l.36.28-.31-1.48c-.03-.15-.21-.29-.36-.28l-2.9.32c-.2.02-.38.15-.38.38l.03,1.51.28-.36c-1,.35-1.89.84-2.72,1.5l.45-.06-1.26-.83c-.13-.08-.36-.06-.45.06l-1.82,2.28c-.12.16-.16.38,0,.53l1.08,1.05c.35.34.88-.19.53-.53l-1.08-1.05v.53l1.82-2.28-.45.06,1.26.83c.15.1.33.04.45-.06.73-.58,1.52-1,2.39-1.31.16-.05.28-.19.28-.36l-.03-1.51-.38.38,2.9-.32-.36-.28.31,1.48c.04.17.2.26.36.28.92.11,1.77.35,2.61.76.15.07.33.07.45-.06l1.05-1.08h-.53l2.28,1.82-.06-.45-.83,1.26c-.1.15-.04.33.06.45.58.73,1,1.51,1.31,2.39.05.16.19.28.36.28l1.51-.03-.38-.38.32,2.9.28-.36-1.48.31c-.17.04-.26.2-.28.36-.11.92-.35,1.77-.76,2.61-.07.15-.07.33.06.45l1.08,1.05v-.53l-1.82,2.28.45-.06-1.26-.83c-.15-.1-.33-.04-.45.06-.73.58-1.52,1-2.39,1.31-.16.05-.28.19-.28.36l.03,1.51.38-.38-2.9.32.36.28-.31-1.48c-.04-.17-.2-.26-.36-.28-.92-.11-1.77-.35-2.61-.76-.15-.07-.33-.07-.45.06l-1.05,1.08h.53l-2.28-1.82.06.45.83-1.26c.1-.15.04-.33-.06-.45-.58-.73-1-1.51-1.31-2.39-.05-.16-.19-.28-.36-.28l-1.51.03.38.38-.32-2.9-.28.36,1.48-.31c.17-.04.26-.2.28-.36.11-.92.35-1.77.76-2.61.21-.43-.44-.81-.65-.38Z"/><path fill="#263238" stroke-width="0" d="M415.36,323.79c1.09.89,1.56,2.33,1.13,3.68s-1.7,2.29-3.1,2.33-2.74-.82-3.24-2.14-.13-2.83.94-3.76c1.19-1.04,3.03-1.08,4.27-.11.38.29.91-.23.53-.53-1.35-1.06-3.21-1.24-4.71-.35s-2.25,2.65-1.92,4.35,1.73,3,3.41,3.24,3.43-.59,4.24-2.12c.91-1.72.48-3.89-1.02-5.12-.37-.3-.9.22-.53.53Z"/><path fill="#407bff" stroke-width="0" d="M423.05,338.75c-.66,1.3-1.05,2.69-1.18,4.09l-2.16.45.47,4.23,2.21-.04c.44,1.34,1.12,2.61,2.05,3.73l-1.21,1.84,3.32,2.66,1.53-1.58c1.3.66,2.69,1.05,4.09,1.18l.45,2.16,4.23-.47-.04-2.21c1.34-.44,2.61-1.12,3.73-2.05l1.84,1.21,2.66-3.32-1.58-1.53c.66-1.3,1.05-2.69,1.18-4.09l2.16-.45-.47-4.23-2.21.04c-.44-1.34-1.12-2.61-2.05-3.73l1.21-1.84-3.32-2.66-1.53,1.58c-1.3-.66-2.69-1.05-4.09-1.18l-.45-2.16-4.23.47.04,2.21c-1.34.44-2.61,1.12-3.73,2.05l-1.84-1.21-2.66,3.32,1.58,1.53ZM436.81,339.38c2.35,1.88,2.73,5.31.85,7.66-1.88,2.35-5.31,2.73-7.66.85-2.35-1.88-2.73-5.31-.85-7.66,1.88-2.35,5.31-2.73,7.66-.85Z"/><rect width="4" height="16.1" x="425.94" y="357.94" fill="#407bff" stroke-width="0" transform="translate(354.68 -192.33) rotate(41.99)"/><rect width="4" height="16.1" x="425.95" y="357.94" fill="#407bff" stroke-width="0" transform="translate(-130.37 439.26) rotate(-48.01)"/></g><g id="Muscle_Aches"><circle cx="405.24" cy="194.33" r="42.24" fill="#407bff" stroke-width="0"/><circle cx="405.24" cy="194.33" r="42.24" fill="#fff" stroke-width="0" opacity=".8"/><path fill="#407bff" stroke-width="0" d="M381.88,193.3c5.16-3.93,12.94-3.26,17.3,1.56.22.25.63.28.91.12,4.12-2.33,9.24-2.24,13.28.22.46.28,1.18-.07,1.13-.65-.36-4.37-.14-8.73.69-13.03.07-.37-.06-.63-.34-.85l-3.32-2.55c-.33-.25-.83-.04-1.03.27-.38.61-1.42,2.08-2.26,1.74-.73-.3-1.39-1.67-1.77-2.28-.69-1.1-1.32-2.23-1.9-3.39-.21-.43-.43-.86-.61-1.3-.05-.12-.09-.37-.18-.47-.27-.3.35-.02-.14.23.47-.24,1.17-.94,1.7-1.3.98-.66,1.98-1.29,2.99-1.91,1.36-.84,2.73-1.66,4.11-2.46h-.76c1.91,1.09,3.81,2.22,5.67,3.39,1.28.81,2.56,1.63,3.76,2.55.6.46,1.17.88,1.48,1.53.8,1.65,1.2,3.57,1.66,5.34.75,2.85,1.41,5.73,2,8.62s1.17,6.04,1.57,9.09c.28,2.16.65,4.51.35,6.7-.16,1.14-.91,1.62-1.8,2.51-1.52,1.52-3.16,2.91-4.99,4.04-7.52,4.63-16.43,3.73-24.36.61-.25-.1-.55.02-.73.19-2.94,2.8-7.49,3.97-11.43,3.44-.94-.13-1.35,1.32-.4,1.45,4.5.61,9.53-.62,12.89-3.82l-.73.19c5.68,2.24,11.89,3.47,17.96,2.24,3.9-.79,7.48-2.63,10.54-5.15,1.03-.85,1.99-1.79,2.93-2.75.6-.61,1.22-1.11,1.46-1.97.34-1.22.26-2.59.19-3.83-.11-1.91-.35-3.82-.63-5.71-.67-4.51-1.59-8.98-2.65-13.41-.44-1.81-.9-3.62-1.43-5.4-.32-1.09-.62-2.28-1.18-3.28-.67-1.2-2.11-2.04-3.2-2.8-1.89-1.3-3.85-2.5-5.82-3.67-.73-.44-2.18-1.7-3.1-1.36-1.27.48-2.52,1.49-3.67,2.19-1.65,1.01-3.36,2-4.88,3.22-1.11.89-.9,1.58-.36,2.79.88,1.97,1.95,3.92,3.23,5.67,1.09,1.49,2.32,2.56,4.1,1.23.68-.51,1.25-1.19,1.7-1.91l-1.03.27,3.32,2.55-.34-.85c-.86,4.43-1.12,8.93-.75,13.43l1.13-.65c-4.5-2.73-10.22-2.81-14.8-.22l.91.12c-4.77-5.26-13.46-6.1-19.12-1.79-.76.58-.01,1.88.76,1.3h0Z"/><path fill="#263238" stroke-width="0" d="M400.85,183.95c-.66,1.43-1.32,2.87-1.98,4.3-.13.28-.14.58.06.83.17.21.51.38.79.27.98-.4,1.96-.81,2.95-1.21l-.92-.92c-.2,1.14-.39,2.29-.59,3.43-.07.4.11.81.52.92.36.1.85-.12.92-.52.2-1.14.39-2.29.59-3.43.08-.49-.34-1.16-.92-.92-.98.4-1.96.81-2.95,1.21l.85,1.1c.66-1.43,1.32-2.87,1.98-4.3.17-.37.1-.81-.27-1.03-.32-.19-.86-.1-1.03.27h0Z"/><path fill="#263238" stroke-width="0" d="M408.69,183.59c-.76,1.26-1.52,2.51-2.28,3.77-.31.52.22,1.35.85,1.1.43-.17.87-.35,1.3-.52.22-.09.43-.17.65-.26.09-.04.18-.07.27-.11.05-.02.11-.04.16-.07.17-.05.08-.07-.26-.07l-.27-.27.03.07-.1-.38c.04-.16.02-.17-.05-.03-.04.07-.09.14-.13.2-.09.14-.18.27-.26.41-.15.24-.31.47-.46.71-.33.51-.66,1.01-.99,1.52-.22.34-.07.83.27,1.03.37.21.8.07,1.03-.27.37-.57.75-1.15,1.12-1.72.19-.29.37-.57.56-.86.22-.33.47-.66.41-1.08s-.44-.77-.88-.78c-.32,0-.61.15-.89.27-.63.25-1.27.51-1.9.76l.85,1.1c.76-1.26,1.52-2.51,2.28-3.77.5-.83-.8-1.58-1.3-.76h0Z"/><path fill="#263238" stroke-width="0" d="M403.65,212.52c-.51.93-1.02,1.85-1.53,2.78-.26.48-.52.95-.79,1.43s-.57.93-.76,1.43c-.42,1.05.56,1.74,1.52,1.48.44-.12.87-.31,1.3-.46.24-.09.48-.17.72-.26.09-.03.23-.05.31-.1.11-.06.08.09-.05,0l-.27-.27v.04c0-.13,0-.27,0-.4-.06.29-.36.57-.53.81-.21.29-.42.58-.63.87-.42.58-.85,1.16-1.27,1.74-.24.33-.06.84.27,1.03.38.22.79.06,1.03-.27.53-.73,1.06-1.45,1.58-2.18.45-.62,1.35-1.48.89-2.32-.4-.74-1.26-.57-1.91-.33-.37.13-.74.27-1.11.4-.23.08-.65.35-.88.25l.33.19h0c.03.13.07.26.1.38-.02-.2.21-.46.3-.63.12-.21.23-.42.35-.63.26-.48.52-.95.79-1.43.51-.93,1.02-1.85,1.53-2.78.47-.85-.83-1.6-1.3-.76h0Z"/><path fill="#263238" stroke-width="0" d="M412.22,211.73l-1.1,2.56c-.37.85-.82,1.71-1.11,2.59-.15.45.01.95.46,1.16.39.19.77.03,1.13-.13.89-.39,1.78-.79,2.66-1.19l-1.13-.65c0,1.4-.02,2.8-.03,4.19,0,.97,1.49.97,1.5,0,0-1.4.02-2.8.03-4.19,0-.62-.63-.87-1.13-.65s-.99.44-1.48.66c-.22.1-.44.2-.67.3-.12.05-.25.11-.37.16l-.15.07c-.1.03-.06.04.11.01l.33.19-.05-.06.22.53s.13-.31.18-.42l.28-.66.54-1.24,1.07-2.48c.16-.37.11-.8-.27-1.03-.32-.19-.87-.1-1.03.27h0Z"/><path fill="#407bff" stroke-width="0" d="M416.68,201.24c0,2.68-4.77,4.86-10.65,4.86s-10.65-2.18-10.65-4.86,4.77-4.86,10.65-4.86,10.65,2.18,10.65,4.86Z" opacity=".3"/></g><g id="Restlessness"><circle cx="369.36" cy="49.36" r="42.24" fill="#407bff" stroke-width="0"/><circle cx="369.36" cy="49.36" r="42.24" fill="#fff" stroke-width="0" opacity=".8"/><path fill="#263238" stroke-width="0" d="M359.57,39.15c-5.93,2.63-8.28,10.04-6.03,15.9,2.62,6.81,9.47,10.56,16.46,11.16s16.14-1.38,20.83-7.36c4.11-5.24,4.25-13.41-2-17.1s-12.54,1.86-14.86,7.56c-1.6,3.92-2.08,8.18-3.58,12.12-1.23,3.23-3.45,6.64-6.85,7.86s-7.11-.27-9.28-3.02-2.32-6.84-.77-10.07c1.67-3.5,4.93-5.79,8.69-6.59,4.05-.86,7.98.15,11.66,1.85,5.86,2.71,12.48,6.68,18.94,3.23,2.69-1.43,4.31-4.23,4.12-7.3-.22-3.47-2.3-6.37-5.01-8.41-5.72-4.3-14.83-7.22-21.51-3.52-2.76,1.53-5.12,4.18-5.79,7.33-.76,3.57.85,6.86,2.8,9.74,2.17,3.2,5.36,6.83,4.75,11.01-.51,3.51-3.86,5.18-7.08,5.45-3.48.29-6.92-.8-9.74-2.84s-5.3-5.43-4.77-9.11c1.08-7.5,10.64-8.18,16.49-8.48,3.66-.19,7.5-.75,10.25-3.41,2.35-2.27,3.05-5.51,1.62-8.48-2.58-5.32-10.07-8.76-15.77-7.08-2.77.82-4.96,3.04-5.55,5.9-.63,3.06.46,6.26,2.15,8.8,1.99,3,4.95,5.03,7.92,6.96s6.53,4.01,8.56,7.16c1.67,2.59,2.68,6.23,1.35,9.18-1.64,3.65-5.93,3.89-9.3,2.86-3.05-.93-9.07-3.69-5.66-7.54,1.17-1.33,2.78-2.2,4.36-2.93,2.1-.97,4.2-1.93,6.3-2.9l12.83-5.9c2.95-1.36,7.05-2.58,8.83-5.55s-.32-5.61-3-6.75c-3.15-1.34-6.94-1.37-10.24-.61-7.02,1.6-12.53,7.39-13.84,14.47-.78,4.24.68,8.5-.09,12.7-.59,3.25-4.86,7.61-7.84,3.98s.07-8.62,1.57-12.09c1.65-3.82,3.28-7.7,3.88-11.85.89-6.1-.97-13.6-6.99-16.46-5.54-2.64-12.45-.13-16.01,4.6-4.39,5.84-3.65,14.17-.37,20.33,3.55,6.68,9.85,11.68,16.19,15.57,6.53,4,14.29,7,22.05,5.6,6.81-1.23,12.49-6.02,15.88-11.93,6.79-11.86,4.21-28.68-7.39-36.58-5.45-3.71-12.42-5.21-18.9-3.94s-11.51,5.22-14.52,10.79-3.73,12.19-1.31,17.99c2.65,6.33,8.62,10.88,15.09,12.81,6.82,2.03,15.07,1.21,20.2-4.13,4.25-4.41,6.17-11.83,2.38-17.14-3.22-4.51-9.69-6.73-14.68-3.84-.83.48-.08,1.78.76,1.3,5.31-3.08,12.52.64,14.08,6.33,1.85,6.77-3.01,13.66-9.26,15.92-6.79,2.45-14.69.65-20.42-3.51-5.39-3.91-8.57-10.03-8.02-16.73.49-6.06,3.8-12,8.88-15.41,5.37-3.6,12.31-4.14,18.41-2.28,6.41,1.95,11.59,6.49,14.43,12.55,2.88,6.13,3.28,13.4,1.28,19.85s-6.46,12.17-12.56,15.03c-7.1,3.32-15.13,1.53-21.84-1.85s-13.06-7.95-17.39-13.89c-4.23-5.8-6.34-14.02-2.62-20.62,2.98-5.29,10.5-8.38,15.95-4.95,6.19,3.9,6.14,12.44,4.25,18.62-1.18,3.88-3.02,7.5-4.51,11.26-1.21,3.06-1.91,6.69.27,9.5,1.79,2.3,4.86,2.53,7.17.87,2.77-2,3.66-5.22,3.6-8.49-.07-3.95-.86-7.68.36-11.56,1.07-3.43,3.25-6.55,6.18-8.65s6.59-3.21,10.22-3.14c2.48.04,9.02,1.01,7.74,4.93-.49,1.49-2.03,2.48-3.33,3.19-1.77.97-3.66,1.74-5.49,2.58l-11.93,5.48-5.85,2.69c-1.59.73-3.16,1.45-4.54,2.54-2.15,1.69-3.74,4.44-1.97,7.01s5.56,3.93,8.37,4.52,6.18.26,8.36-2c3.98-4.13,1.78-11.07-1.74-14.71-4.83-4.98-12.44-7.08-15.7-13.56-1.44-2.86-1.89-6.57.44-9.1,2.04-2.22,5.29-2.51,8.09-1.9,3.1.67,6.1,2.4,8.03,4.95,1.09,1.43,1.8,3.21,1.41,5.02s-1.67,3.21-3.15,4.17c-3.37,2.19-7.61,1.85-11.44,2.12-2.87.2-5.75.8-8.35,2.06-2.36,1.14-4.44,2.94-5.47,5.4-1.18,2.82-.73,5.93.84,8.5,3.14,5.14,9.64,8.08,15.56,7.19,2.53-.38,5.03-1.52,6.47-3.71,1.88-2.86,1.18-6.39-.23-9.28-1.62-3.3-4.38-5.94-5.74-9.37s-.48-6.9,2.13-9.44c5.83-5.69,15.25-3,21.3.92,3.06,1.98,5.76,5.17,5.4,9.04-.3,3.3-3.11,5.24-6.14,5.8-7.26,1.34-13.13-4.47-19.84-6.06-6.32-1.49-13.61.62-16.89,6.54-2.98,5.39-1.63,12.35,4.05,15.31,2.57,1.34,5.54,1.51,8.19.3,2.8-1.28,4.84-3.84,6.19-6.55,3.18-6.4,2.57-14.95,8.5-19.82,2.69-2.2,6.27-2.67,9.18-.61s4.18,5.66,3.53,9.1c-1.51,7.97-9.98,11.5-17.23,12.17s-15.26-1.55-19.11-8.24c-3.17-5.51-1.66-13.28,4.47-15.99.88-.39.12-1.68-.76-1.3h0Z"/></g><g id="Difficulty_Sleeping"><circle cx="127.36" cy="49.49" r="42.24" fill="#407bff" stroke-width="0"/><circle cx="127.36" cy="49.49" r="42.24" fill="#fff" stroke-width="0" opacity=".8"/><path fill="#263238" stroke-width="0" d="M141.43,61.87v4.85h-27.26v-3.81l19.21-23.88h-18.85v-4.85h26.4v3.87l-19.21,23.82h19.71Z"/><path fill="#263238" stroke-width="0" d="M113.11,50.86l.36,1.75-9.81,2.05-.29-1.37,5.12-10.04-6.79,1.42-.36-1.75,9.51-1.99.29,1.39-5.13,10.02,7.1-1.48Z"/><path fill="#263238" stroke-width="0" d="M150.11,56.23l-.16,1.42-8-.91.13-1.12,6.44-6.36-5.53-.63.16-1.42,7.74.89-.13,1.13-6.44,6.34,5.78.66Z"/><path fill="#407bff" stroke-width="0" d="M155.89,49.49c-.07,11.76-7.48,22.72-18.61,26.77s-24.21.64-31.96-8.64-8.53-22.67-2.4-32.86,18.35-15.63,30-13.27,20.73,11.86,22.64,23.6c.24,1.45.31,2.93.32,4.39.02,2.89,4.52,2.9,4.5,0-.08-13.82-8.81-26.26-21.76-31.05s-28.02-.63-36.7,9.99-10.08,26.14-2.89,38.06,21.3,18.06,34.92,15.37,23.98-13.76,26.01-27.11c.26-1.74.42-3.49.43-5.25.02-2.9-4.48-2.9-4.5,0Z"/><path fill="#407bff" stroke-width="0" d="M102.02,66.07c17.66-9.35,35.5-18.38,53.5-27.08,1.09-.53,1.39-2.09.81-3.08-.65-1.12-1.98-1.34-3.08-.81-18,8.7-35.83,17.73-53.5,27.08-2.56,1.36-.29,5.24,2.27,3.89h0Z"/></g><g id="Irritability"><circle cx="76.54" cy="197.76" r="42.24" fill="#407bff" stroke-width="0"/><circle cx="76.54" cy="197.76" r="42.24" fill="#fff" stroke-width="0" opacity=".8"/><polygon fill="#407bff" stroke-width="0" points="71.32 174.33 62.95 209.73 76.84 208.13 68.85 229.9 93.4 200.4 79.7 199.83 93.4 174.33 71.32 174.33"/><path fill="#263238" stroke-width="0" d="M48.69,183.46c2.35,2.07,4.7,4.14,7.04,6.21.3.27.76.3,1.06,0,.27-.27.31-.79,0-1.06-2.35-2.07-4.7-4.14-7.04-6.21-.3-.27-.76-.3-1.06,0-.27.27-.31.79,0,1.06h0Z"/><path fill="#263238" stroke-width="0" d="M42.66,195.14c4.17,0,8.34-.02,12.5-.02h1.8c.97,0,.97-1.51,0-1.5-4.17,0-8.34.02-12.5.02h-1.8c-.97,0-.97,1.51,0,1.5h0Z"/><path fill="#263238" stroke-width="0" d="M48.37,204.97c2.91-1.13,5.69-2.57,8.27-4.34.33-.23.48-.66.27-1.03-.19-.33-.69-.5-1.03-.27-2.47,1.69-5.12,3.1-7.91,4.19-.38.15-.64.5-.52.92.1.36.54.67.92.52h0Z"/><path fill="#263238" stroke-width="0" d="M103.48,203.72c-2.35-2.07-4.7-4.14-7.04-6.21-.3-.27-.76-.3-1.06,0-.27.27-.31.79,0,1.06,2.35,2.07,4.7,4.14,7.04,6.21.3.27.76.3,1.06,0,.27-.27.31-.79,0-1.06h0Z"/><path fill="#263238" stroke-width="0" d="M109.51,192.03c-4.17.13-8.34.27-12.5.4l-1.8.06c-.96.03-.97,1.53,0,1.5,4.17-.13,8.34-.27,12.5-.4l1.8-.06c.96-.03.97-1.53,0-1.5h0Z"/><path fill="#263238" stroke-width="0" d="M103.8,182.2c-2.91,1.13-5.69,2.57-8.27,4.34-.33.23-.48.66-.27,1.03.19.33.69.5,1.03.27,2.47-1.69,5.12-3.1,7.91-4.19.38-.15.64-.5.52-.92-.1-.36-.54-.67-.92-.52h0Z"/></g><g id="Fatigue"><circle cx="88.12" cy="357.58" r="42.24" fill="#407bff" stroke-width="0"/><circle cx="88.12" cy="357.58" r="42.24" fill="#fff" stroke-width="0" opacity=".8"/><path fill="#263238" stroke-width="0" d="M111.76,349.47h-3.96l.75.75v-5.71c0-.41-.34-.75-.75-.75h-42.83c-.41,0-.75.34-.75.75v25.1c0,.41.34.75.75.75h42.83c.41,0,.75-.34.75-.75v-5.82l-.75.75h3.96c.41,0,.75-.34.75-.75v-13.57c0-.97-1.5-.97-1.5,0v13.57l.75-.75h-3.96c-.41,0-.75.34-.75.75v5.82l.75-.75h-42.83l.75.75v-25.1l-.75.75h42.83l-.75-.75v5.71c0,.41.34.75.75.75h3.96c.97,0,.97-1.5,0-1.5Z"/><rect width="34.17" height="15.41" x="69.4" y="349.36" stroke-width="0" opacity=".3" rx=".87" ry=".87"/><path fill="#407bff" stroke-width="0" d="M71.92,336.45c3.34,4.55,6.68,9.1,10.02,13.64,5.32,7.24,10.64,14.49,15.96,21.73,1.22,1.66,2.43,3.31,3.65,4.97,1.13,1.54,3.74.05,2.59-1.51-3.34-4.55-6.68-9.1-10.02-13.64-5.32-7.24-10.64-14.49-15.96-21.73-1.22-1.66-2.43-3.31-3.65-4.97-1.13-1.54-3.74-.05-2.59,1.51h0Z"/></g></svg>